<?xml version="1.0" encoding="UTF-8" standalone="no"?><!DOCTYPE svg PUBLIC "-//W3C//DTD SVG 1.1//EN" "http://www.w3.org/Graphics/SVG/1.1/DTD/svg11.dtd"><svg width="100%" height="100%" viewBox="0 0 198 297" version="1.1" xmlns="http://www.w3.org/2000/svg" xmlns:xlink="http://www.w3.org/1999/xlink" xml:space="preserve" xmlns:serif="http://www.serif.com/" style="fill-rule:evenodd;clip-rule:evenodd;stroke-linejoin:round;stroke-miterlimit:2;"><g><g transform="matrix(0.954056,-0.029203,0.020216,0.99985,-33.740764,-26.309069)"><g transform="matrix(129.246856,0,0,129.246856,166.240947,126.133278)"></g><text x="91.795px" y="126.133px" style="font-family:'RESPECTOutline', 'RESPECT';font-size:129.247px;">B</text></g><g transform="matrix(0.883538,-0.027044,0.020216,0.99985,-82.21299,-20.94636)"><g transform="matrix(130.364493,0,0,130.364493,320.557057,121.600553)"></g><text x="226.955px" y="121.601px" style="font-family:'RESPECTOutline', 'RESPECT';font-size:130.364px;">W</text></g><path d="M66.886,9.372l46.211,0.438l-0.158,16.711l-46.211,-0.438l0.158,-16.711Z" style="fill:#ffe738;"/><path d="M83.404,21.77l-1.171,68.755l-16.709,-0.285l1.171,-68.755l16.709,0.285Z" style="fill:#ffe738;"/><path d="M114.704,20.488l0.876,68.759l-16.71,0.213l-0.876,-68.759l16.71,-0.213Z" style="fill:#ffe738;"/><path d="M73.135,77.648l38.421,-0.987l0.327,12.73l-38.421,0.987l-0.327,-12.73Z" style="fill:#ffe738;"/><path d="M70.729,43.218l38.421,-0.987l0.369,14.362l-38.421,0.987l-0.369,-14.362Z" style="fill:#ffe738;"/><path d="M141.679,6.989l3.07,83.817l-14.357,0.526l-3.07,-83.817l14.357,-0.526Z" style="fill:#ffe738;"/><path d="M193.552,4.745l3.07,83.817l-14.357,0.526l-3.07,-83.817l14.357,-0.526Z" style="fill:#ffe738;"/><path d="M163.123,45.004l28.323,35.015l-11.17,9.035l-28.323,-35.015l11.17,-9.035Z" style="fill:#ffe738;"/><path d="M163.123,45.004l28.323,35.015l-11.17,9.035l-28.323,-35.015l11.17,-9.035Z" style="fill:#ffe738;"/><path d="M171.854,54.28l-29.323,34.183l-10.904,-9.354l29.323,-34.183l10.904,9.354Z" style="fill:#ffe738;"/><path d="M22.81,15.475l-1.272,75.819l-16.709,-0.28l1.272,-75.819l16.709,0.28Z" style="fill:#ffe738;"/><path d="M53.947,16.167l-1.272,75.819l-16.709,-0.28l1.272,-75.819l16.709,0.28Z" style="fill:#ffe738;"/><path d="M9.422,15.536l39.035,0.37l-0.158,16.711l-39.035,-0.37l0.158,-16.711Z" style="fill:#ffe738;"/><path d="M8.843,50.025l39.035,0.37l-0.158,16.711l-39.035,-0.37l0.158,-16.711Z" style="fill:#ffe738;"/><g transform="matrix(0.883538,-0.027044,0.020216,0.99985,-94.592652,-23.741667)"><g transform="matrix(127.312286,0,0,127.312286,176.875002,126.183098)"></g><text x="100.106px" y="126.183px" style="font-family:'RESPECTOutline', 'RESPECT';font-size:127.312px;">A</text></g><g transform="matrix(0.954056,-0.029203,0.020216,0.99985,-33.740764,-26.309069)"><g transform="matrix(129.246856,0,0,129.246856,166.240947,126.133278)"></g><text x="91.795px" y="126.133px" style="font-family:'RESPECTOutline', 'RESPECT';font-size:129.247px;">B</text></g><g transform="matrix(0.883538,-0.027044,0.020216,0.99985,-82.21299,-20.94636)"><g transform="matrix(130.364493,0,0,130.364493,320.557057,121.600553)"></g><text x="226.955px" y="121.601px" style="font-family:'RESPECTOutline', 'RESPECT';font-size:130.364px;">W</text></g><g transform="matrix(0.883538,-0.027044,0.020216,0.99985,-94.592652,-23.741667)"><g transform="matrix(127.312286,0,0,127.312286,176.875002,126.183098)"></g><text x="100.106px" y="126.183px" style="font-family:'RESPECTOutline', 'RESPECT';font-size:127.312px;">A</text></g></g><g><path d="M84.525,218.961l-1.171,68.755l-16.709,-0.285l1.171,-68.755l16.709,0.285Z" style="fill:#3e8fc6;"/><path d="M115.826,217.679l0.876,68.759l-16.71,0.213l-0.876,-68.759l16.71,-0.213Z" style="fill:#3e8fc6;"/><path d="M74.257,274.838l38.421,-0.987l0.327,12.73l-38.421,0.987l-0.327,-12.73Z" style="fill:#3e8fc6;"/><path d="M71.85,240.409l38.421,-0.987l0.369,14.362l-38.421,0.987l-0.369,-14.362Z" style="fill:#3e8fc6;"/><path d="M142.801,204.18l3.07,83.817l-14.357,0.526l-3.07,-83.817l14.357,-0.526Z" style="fill:#3e8fc6;"/><path d="M194.674,201.936l3.07,83.817l-14.357,0.526l-3.07,-83.817l14.357,-0.526Z" style="fill:#3e8fc6;"/><path d="M164.245,242.195l28.323,35.015l-11.17,9.035l-28.323,-35.015l11.17,-9.035Z" style="fill:#3e8fc6;"/><path d="M164.245,242.195l28.323,35.015l-11.17,9.035l-28.323,-35.015l11.17,-9.035Z" style="fill:#3e8fc6;"/><path d="M172.976,251.471l-29.323,34.183l-10.904,-9.354l29.323,-34.183l10.904,9.354Z" style="fill:#3e8fc6;"/><path d="M23.932,212.666l-1.272,75.819l-16.709,-0.28l1.272,-75.819l16.709,0.28Z" style="fill:#3e8fc6;"/><path d="M55.069,213.358l-1.272,75.819l-16.709,-0.28l1.272,-75.819l16.709,0.28Z" style="fill:#3e8fc6;"/><path d="M8.077,211.136l39.035,0.37l-0.158,16.711l-39.035,-0.37l0.158,-16.711Z" style="fill:#3e8fc6;"/><path d="M9.965,247.216l39.035,0.37l-0.158,16.711l-39.035,-0.37l0.158,-16.711Z" style="fill:#3e8fc6;"/><path d="M84.525,218.961l-1.171,68.755l-16.709,-0.285l1.171,-68.755l16.709,0.285Z" style="fill:#3e8fc6;"/><path d="M65.541,204.972l49.033,0.464l-0.158,16.711l-49.033,-0.464l0.158,-16.711Z" style="fill:#3e8fc6;"/><g transform="matrix(0.954056,-0.029203,0.020216,0.99985,-37.724826,-26.278122)"><g transform="matrix(129.246856,0,0,129.246856,166.284852,323.30602)"></g><text x="91.839px" y="323.306px" style="font-family:'RESPECTOutline', 'RESPECT';font-size:129.247px;">B</text></g><g transform="matrix(0.883538,-0.027044,0.020216,0.99985,-86.193956,-20.915507)"><g transform="matrix(130.364493,0,0,130.364493,320.600963,318.773294)"></g><text x="226.999px" y="318.773px" style="font-family:'RESPECTOutline', 'RESPECT';font-size:130.364px;">W</text></g><g transform="matrix(0.883538,-0.027044,0.020216,0.99985,-98.573618,-23.710815)"><g transform="matrix(127.312286,0,0,127.312286,176.918908,323.35584)"></g><text x="100.15px" y="323.356px" style="font-family:'RESPECTOutline', 'RESPECT';font-size:127.312px;">A</text></g></g><g><path d="M84.525,120.374l-1.171,68.755l-16.709,-0.285l1.171,-68.755l16.709,0.285Z" style="fill:#d4809d;"/><path d="M115.826,119.092l0.876,68.759l-16.71,0.213l-0.876,-68.759l16.71,-0.213Z" style="fill:#d4809d;"/><path d="M74.257,176.252l38.421,-0.987l0.327,12.73l-38.421,0.987l-0.327,-12.73Z" style="fill:#d4809d;"/><path d="M71.85,141.822l38.421,-0.987l0.369,14.362l-38.421,0.987l-0.369,-14.362Z" style="fill:#d4809d;"/><path d="M142.801,105.594l3.07,83.817l-14.357,0.526l-3.07,-83.817l14.357,-0.526Z" style="fill:#d4809d;"/><path d="M194.674,103.349l3.07,83.817l-14.357,0.526l-3.07,-83.817l14.357,-0.526Z" style="fill:#d4809d;"/><path d="M164.245,143.608l28.323,35.015l-11.17,9.035l-28.323,-35.015l11.17,-9.035Z" style="fill:#d4809d;"/><path d="M164.245,143.608l28.323,35.015l-11.17,9.035l-28.323,-35.015l11.17,-9.035Z" style="fill:#d4809d;"/><path d="M172.976,152.884l-29.323,34.183l-10.904,-9.354l29.323,-34.183l10.904,9.354Z" style="fill:#d4809d;"/><path d="M23.932,114.08l-1.272,75.819l-16.709,-0.28l1.272,-75.819l16.709,0.28Z" style="fill:#d4809d;"/><path d="M55.069,114.772l-1.272,75.819l-16.709,-0.28l1.272,-75.819l16.709,0.28Z" style="fill:#d4809d;"/><path d="M8.077,112.549l39.035,0.37l-0.158,16.711l-39.035,-0.37l0.158,-16.711Z" style="fill:#d4809d;"/><path d="M9.965,148.629l39.035,0.37l-0.158,16.711l-39.035,-0.37l0.158,-16.711Z" style="fill:#d4809d;"/><path d="M84.525,120.374l-1.171,68.755l-16.709,-0.285l1.171,-68.755l16.709,0.285Z" style="fill:#d4809d;"/><path d="M65.541,106.385l49.033,0.464l-0.158,16.711l-49.033,-0.464l0.158,-16.711Z" style="fill:#d4809d;"/><g transform="matrix(0.954056,-0.029203,0.020216,0.99985,-35.731786,-26.292955)"><g transform="matrix(129.246856,0,0,129.246856,166.284852,224.719649)"></g><text x="91.839px" y="224.72px" style="font-family:'RESPECTOutline', 'RESPECT';font-size:129.247px;">B</text></g><g transform="matrix(0.883538,-0.027044,0.020216,0.99985,-84.200916,-20.93034)"><g transform="matrix(130.364493,0,0,130.364493,320.600963,220.186923)"></g><text x="226.999px" y="220.187px" style="font-family:'RESPECTOutline', 'RESPECT';font-size:130.364px;">W</text></g><g transform="matrix(0.883538,-0.027044,0.020216,0.99985,-96.580578,-23.725647)"><g transform="matrix(127.312286,0,0,127.312286,176.918908,224.769469)"></g><text x="100.15px" y="224.769px" style="font-family:'RESPECTOutline', 'RESPECT';font-size:127.312px;">A</text></g></g></svg>