<?xml version="1.0" encoding="UTF-8" standalone="no"?><!DOCTYPE svg PUBLIC "-//W3C//DTD SVG 1.1//EN" "http://www.w3.org/Graphics/SVG/1.1/DTD/svg11.dtd"><svg width="100%" height="100%" viewBox="0 0 407 736" version="1.1" xmlns="http://www.w3.org/2000/svg" xmlns:xlink="http://www.w3.org/1999/xlink" xml:space="preserve" xmlns:serif="http://www.serif.com/" style="fill-rule:evenodd;clip-rule:evenodd;stroke-linejoin:round;stroke-miterlimit:2;"><path d="M386.965,496.138c-0.1,2.184 -0.523,5.198 -0.809,7.774c-0.286,2.575 -0.377,5.195 -0.809,7.774c-0.431,2.578 -1.104,5.21 -1.778,7.794c-0.674,2.583 -1.492,5.218 -2.263,7.804c-0.771,2.585 -1.346,5.215 -2.263,7.804c-0.916,2.589 -2.073,5.23 -3.232,7.824c-1.158,2.594 -2.413,5.238 -3.716,7.834c-1.304,2.597 -2.8,5.246 -4.201,7.844c-1.401,2.599 -2.703,5.244 -4.201,7.844c-1.498,2.601 -3.188,5.254 -4.686,7.854c-1.498,2.601 -2.703,5.244 -4.201,7.844c-1.498,2.601 -3.188,5.254 -4.686,7.854c-1.498,2.601 -2.8,5.246 -4.201,7.844c-1.401,2.599 -2.8,5.246 -4.201,7.844c-1.401,2.599 -2.703,5.244 -4.201,7.844c-1.498,2.601 -3.188,5.254 -4.686,7.854c-1.498,2.601 -2.8,5.246 -4.201,7.844c-1.401,2.599 -2.703,5.244 -4.201,7.844c-1.498,2.601 -3.188,5.254 -4.686,7.854c-1.498,2.601 -2.8,5.246 -4.201,7.844c-1.401,2.599 -2.703,5.244 -4.201,7.844c-1.498,2.601 -3.188,5.254 -4.686,7.854c-1.498,2.601 -2.557,5.289 -4.201,7.844c-1.644,2.555 -3.536,4.824 -5.665,7.39c-2.129,2.565 -4.637,5.526 -7.109,7.904c-2.472,2.378 -5.093,4.566 -7.623,6.46c-2.53,1.895 -5.115,3.5 -7.653,5.007c-2.538,1.507 -5.128,2.87 -7.674,4.037c-2.545,1.168 -5.143,2.143 -7.694,3.068c-2.55,0.925 -5.148,1.9 -7.704,2.584c-2.555,0.683 -5.162,1.222 -7.724,1.614c-2.561,0.392 -5.18,0.35 -7.744,0.645c-2.563,0.295 -5.172,0.737 -7.734,1.13c-2.561,0.392 -5.172,0.737 -7.734,1.13c-2.561,0.392 -5.172,0.737 -7.734,1.13c-2.561,0.392 -5.17,0.834 -7.734,1.13c-2.563,0.295 -5.18,0.35 -7.744,0.645c-2.563,0.295 -5.172,0.737 -7.734,1.13c-2.561,0.392 -5.172,0.737 -7.734,1.13c-2.561,0.392 -5.172,0.737 -7.734,1.13c-2.561,0.392 -5.17,0.834 -7.734,1.13c-2.563,0.295 -5.177,0.495 -7.744,0.645c-2.566,0.15 -5.183,0.204 -7.754,0.161c-2.57,-0.044 -5.187,0.01 -7.764,-0.324c-2.576,-0.335 -5.208,-1.007 -7.794,-1.778c-2.585,-0.771 -5.222,-1.686 -7.814,-2.747c-2.592,-1.061 -5.234,-2.219 -7.834,-3.716c-2.601,-1.498 -5.251,-3.043 -7.864,-5.17c-2.614,-2.128 -5.68,-5.07 -7.914,-7.593c-2.234,-2.523 -3.742,-5.11 -5.491,-7.643c-1.749,-2.533 -3.403,-5.117 -5.007,-7.653c-1.604,-2.536 -3.015,-5.125 -4.522,-7.664c-1.507,-2.538 -2.918,-5.127 -4.522,-7.664c-1.604,-2.536 -3.403,-5.117 -5.007,-7.653c-1.604,-2.536 -3.015,-5.125 -4.522,-7.664c-1.507,-2.538 -3.015,-5.125 -4.522,-7.664c-1.507,-2.538 -3.015,-5.125 -4.522,-7.664c-1.507,-2.538 -2.918,-5.127 -4.522,-7.664c-1.604,-2.536 -3.403,-5.117 -5.007,-7.653c-1.604,-2.536 -3.015,-5.125 -4.522,-7.664c-1.507,-2.538 -3.015,-5.125 -4.522,-7.664c-1.507,-2.538 -3.015,-5.125 -4.522,-7.664c-1.507,-2.538 -3.16,-5.122 -4.522,-7.664c-1.362,-2.541 -2.433,-5.137 -3.553,-7.684c-1.119,-2.546 -2.143,-5.143 -3.068,-7.694c-0.925,-2.55 -1.803,-5.15 -2.584,-7.704c-0.78,-2.553 -1.561,-5.155 -2.099,-7.714c-0.538,-2.558 -0.834,-5.17 -1.13,-7.734c-0.295,-2.563 -0.447,-5.178 -0.645,-7.744c-0.199,-2.565 -0.592,-5.175 -0.645,-7.744c-0.053,-2.568 0.038,-5.188 0.324,-7.764c0.286,-2.575 0.862,-5.205 1.293,-7.784c0.431,-2.578 0.862,-5.205 1.293,-7.784c0.431,-2.578 0.862,-5.205 1.293,-7.784c0.431,-2.578 0.862,-5.205 1.293,-7.784c0.431,-2.578 0.765,-5.203 1.293,-7.784c0.528,-2.58 1.25,-5.213 1.778,-7.794c0.528,-2.58 0.862,-5.205 1.293,-7.784c0.431,-2.578 0.862,-5.205 1.293,-7.784c0.431,-2.578 0.862,-5.205 1.293,-7.784c0.431,-2.578 0.765,-5.203 1.293,-7.784c0.528,-2.58 1.25,-5.213 1.778,-7.794c0.528,-2.58 0.862,-5.205 1.293,-7.784c0.431,-2.578 0.765,-5.203 1.293,-7.784c0.528,-2.58 1.25,-5.213 1.778,-7.794c0.528,-2.58 0.862,-5.205 1.293,-7.784c0.431,-2.578 0.862,-5.205 1.293,-7.784c0.431,-2.578 0.862,-5.205 1.293,-7.784c0.431,-2.578 0.765,-5.203 1.293,-7.784c0.528,-2.58 1.25,-5.213 1.778,-7.794c0.528,-2.58 0.765,-5.203 1.293,-7.784c0.528,-2.58 1.104,-5.21 1.778,-7.794c0.674,-2.583 1.443,-5.217 2.263,-7.804c0.819,-2.587 1.686,-5.222 2.747,-7.814c1.061,-2.592 2.413,-5.238 3.716,-7.834c1.304,-2.597 2.655,-5.243 4.201,-7.844c1.546,-2.602 3.188,-5.254 5.17,-7.864c1.982,-2.611 4.397,-5.424 6.624,-7.894c2.228,-2.47 4.268,-4.597 6.644,-6.925c2.376,-2.328 5.088,-4.808 7.613,-6.945c2.525,-2.137 5.105,-3.984 7.633,-5.976c2.528,-1.992 5.105,-3.984 7.633,-5.976c2.528,-1.992 5.105,-3.984 7.633,-5.976c2.528,-1.992 5.105,-3.984 7.633,-5.976c2.528,-1.992 5.107,-3.887 7.633,-5.976c2.526,-2.089 5.097,-4.372 7.623,-6.46c2.526,-2.089 5.105,-3.984 7.633,-5.976c2.528,-1.992 5.105,-3.984 7.633,-5.976c2.528,-1.992 5.105,-3.984 7.633,-5.976c2.528,-1.992 5.105,-3.984 7.633,-5.976c2.528,-1.992 5.103,-4.081 7.633,-5.976c2.53,-1.895 5.107,-3.887 7.643,-5.491c2.536,-1.604 5.127,-2.918 7.674,-4.037c2.546,-1.119 5.148,-1.9 7.704,-2.584c2.555,-0.683 5.163,-1.173 7.724,-1.614c2.56,-0.441 5.167,-0.98 7.734,-1.13c2.566,-0.15 5.19,0.135 7.764,0.324c2.573,0.189 5.195,0.377 7.774,0.809c2.578,0.431 5.207,0.959 7.794,1.778c2.587,0.819 5.228,1.976 7.824,3.232c2.596,1.255 5.246,2.8 7.844,4.201c2.599,1.401 5.246,2.8 7.844,4.201c2.599,1.401 5.246,2.8 7.844,4.201c2.599,1.401 5.246,2.8 7.844,4.201c2.599,1.401 5.246,2.8 7.844,4.201c2.599,1.401 5.246,2.8 7.844,4.201c2.599,1.401 5.246,2.8 7.844,4.201c2.599,1.401 5.246,2.8 7.844,4.201c2.599,1.401 5.246,2.8 7.844,4.201c2.599,1.401 5.241,2.558 7.844,4.201c2.604,1.643 5.263,3.624 7.874,5.655c2.612,2.031 5.421,4.251 7.894,6.624c2.473,2.373 4.857,5.087 6.945,7.613c2.089,2.526 3.887,5.107 5.491,7.643c1.604,2.536 2.773,5.13 4.037,7.674c1.265,2.543 2.53,5.135 3.553,7.684c1.022,2.548 1.9,5.148 2.584,7.704c0.683,2.555 1.173,5.163 1.614,7.724c0.441,2.56 0.737,5.172 1.13,7.734c0.392,2.561 0.737,5.172 1.13,7.734c0.392,2.561 0.737,5.172 1.13,7.734c0.392,2.561 0.737,5.172 1.13,7.734c0.392,2.561 0.737,5.172 1.13,7.734c0.392,2.561 0.737,5.172 1.13,7.734c0.392,2.561 0.737,5.172 1.13,7.734c0.392,2.561 0.737,5.172 1.13,7.734c0.392,2.561 0.737,5.172 1.13,7.734c0.392,2.561 0.689,5.173 1.13,7.734c0.441,2.56 1.173,5.163 1.614,7.724c0.441,2.56 0.737,5.172 1.13,7.734c0.392,2.561 0.737,5.172 1.13,7.734c0.392,2.561 0.737,5.172 1.13,7.734c0.392,2.561 0.737,5.172 1.13,7.734c0.392,2.561 0.737,5.172 1.13,7.734c0.392,2.561 0.737,5.172 1.13,7.734c0.392,2.561 0.834,5.17 1.13,7.734c0.295,2.563 0.495,5.177 0.645,7.744c0.15,2.566 0.115,5.573 0.161,7.754c0.045,2.181 0.211,3.147 0.11,5.331Z" style="fill:#d4809d;fill-rule:nonzero;"/><clipPath id="_clip1"><path d="M69.379,692.942l326.496,-44.134l-44.941,-332.466l-326.496,44.134l44.941,332.466Z"/></clipPath><g clip-path="url(#_clip1)"><path d="M220.385,149.902l106.111,-14.344l-184.555,-135.558l-141.941,179.693l106.111,-14.344l40.532,211.335c5.703,39.376 12.28,103.35 9.319,138.339c-26.326,-0.48 -58.024,7.904 -89.145,11.906c44.365,46.954 76.943,76.923 138.639,148.854l149.623,-158.521c-32.673,-8.512 -62.237,-13.274 -87.869,-13.294c5.983,-56.615 6.81,-113.626 -14.135,-172.307l-32.688,-181.759Z" style="fill:#a7582a;"/></g></svg>