<?xml version="1.0" encoding="UTF-8" standalone="no"?><!DOCTYPE svg PUBLIC "-//W3C//DTD SVG 1.1//EN" "http://www.w3.org/Graphics/SVG/1.1/DTD/svg11.dtd"><svg width="100%" height="100%" viewBox="0 0 782 453" version="1.1" xmlns="http://www.w3.org/2000/svg" xmlns:xlink="http://www.w3.org/1999/xlink" xml:space="preserve" xmlns:serif="http://www.serif.com/" style="fill-rule:evenodd;clip-rule:evenodd;stroke-linejoin:round;stroke-miterlimit:2;"><path d="M516.561,427.448c2.491,-0.229 5.914,-0.87 8.842,-1.332c2.928,-0.462 5.918,-0.704 8.842,-1.332c2.924,-0.628 5.897,-1.535 8.814,-2.441c2.917,-0.906 5.886,-1.979 8.8,-2.995c2.915,-1.016 5.89,-1.812 8.8,-2.995c2.91,-1.183 5.869,-2.644 8.773,-4.104c2.903,-1.46 5.859,-3.032 8.759,-4.658c2.899,-1.626 5.848,-3.476 8.745,-5.213c2.896,-1.737 5.851,-3.365 8.745,-5.213c2.894,-1.848 5.837,-3.919 8.731,-5.767c2.894,-1.848 5.851,-3.365 8.745,-5.213c2.894,-1.848 5.837,-3.919 8.731,-5.767c2.894,-1.848 5.848,-3.476 8.745,-5.213c2.896,-1.737 5.848,-3.476 8.745,-5.213c2.896,-1.737 5.851,-3.365 8.745,-5.213c2.894,-1.848 5.837,-3.919 8.731,-5.767c2.894,-1.848 5.848,-3.476 8.745,-5.213c2.896,-1.737 5.851,-3.365 8.745,-5.213c2.894,-1.848 5.837,-3.919 8.731,-5.767c2.894,-1.848 5.848,-3.476 8.745,-5.213c2.896,-1.737 5.851,-3.365 8.745,-5.213c2.894,-1.848 5.837,-3.919 8.731,-5.767c2.894,-1.848 5.911,-3.2 8.745,-5.213c2.834,-2.013 5.328,-4.295 8.148,-6.862c2.82,-2.567 6.072,-5.589 8.661,-8.539c2.589,-2.95 4.951,-6.06 6.984,-9.052c2.033,-2.991 3.731,-6.03 5.321,-9.01c1.589,-2.98 3.011,-6.011 4.212,-8.982c1.201,-2.97 2.179,-5.991 3.103,-8.954c0.924,-2.963 1.902,-5.984 2.549,-8.94c0.647,-2.956 1.126,-5.964 1.44,-8.912c0.314,-2.948 0.128,-5.939 0.331,-8.884c0.203,-2.945 0.571,-5.95 0.886,-8.898c0.314,-2.948 0.571,-5.95 0.886,-8.898c0.314,-2.948 0.571,-5.95 0.886,-8.898c0.314,-2.948 0.682,-5.953 0.886,-8.898c0.203,-2.945 0.128,-5.939 0.331,-8.884c0.203,-2.945 0.571,-5.95 0.886,-8.898c0.314,-2.948 0.571,-5.95 0.886,-8.898c0.314,-2.948 0.571,-5.95 0.886,-8.898c0.314,-2.948 0.682,-5.953 0.886,-8.898c0.203,-2.945 0.294,-5.943 0.331,-8.884c0.037,-2.941 -0.038,-5.935 -0.223,-8.87c-0.185,-2.935 -0.26,-5.929 -0.778,-8.856c-0.517,-2.927 -1.424,-5.9 -2.441,-8.814c-1.016,-2.915 -2.2,-5.88 -3.55,-8.787c-1.349,-2.906 -2.81,-5.865 -4.658,-8.759c-1.848,-2.894 -3.753,-5.841 -6.321,-8.717c-2.569,-2.875 -6.092,-6.226 -9.093,-8.647c-3.001,-2.421 -6.037,-4.009 -9.024,-5.875c-2.987,-1.866 -6.027,-3.621 -9.01,-5.321c-2.983,-1.7 -6.016,-3.177 -8.996,-4.766c-2.98,-1.589 -6.013,-3.066 -8.996,-4.766c-2.983,-1.7 -6.027,-3.621 -9.01,-5.321c-2.983,-1.7 -6.016,-3.177 -8.996,-4.766c-2.98,-1.589 -6.016,-3.177 -8.996,-4.766c-2.98,-1.589 -6.016,-3.177 -8.996,-4.766c-2.98,-1.589 -6.013,-3.066 -8.996,-4.766c-2.983,-1.7 -6.027,-3.621 -9.01,-5.321c-2.983,-1.7 -6.016,-3.177 -8.996,-4.766c-2.98,-1.589 -6.016,-3.177 -8.996,-4.766c-2.98,-1.589 -6.016,-3.177 -8.996,-4.766c-2.98,-1.589 -6.02,-3.343 -8.996,-4.766c-2.976,-1.423 -5.999,-2.512 -8.968,-3.658c-2.969,-1.146 -5.991,-2.179 -8.954,-3.103c-2.963,-0.924 -5.981,-1.791 -8.94,-2.549c-2.959,-0.758 -5.974,-1.514 -8.926,-1.994c-2.952,-0.48 -5.953,-0.682 -8.898,-0.886c-2.945,-0.203 -5.942,-0.239 -8.884,-0.331c-2.942,-0.092 -5.946,-0.405 -8.884,-0.331c-2.938,0.074 -5.928,0.316 -8.856,0.778c-2.928,0.462 -5.904,1.258 -8.828,1.886c-2.924,0.628 -5.904,1.258 -8.828,1.886c-2.924,0.628 -5.904,1.258 -8.828,1.886c-2.924,0.628 -5.904,1.258 -8.828,1.886c-2.924,0.628 -5.907,1.147 -8.828,1.886c-2.922,0.739 -5.893,1.702 -8.814,2.441c-2.922,0.739 -5.904,1.258 -8.828,1.886c-2.924,0.628 -5.904,1.258 -8.828,1.886c-2.924,0.628 -5.904,1.258 -8.828,1.886c-2.924,0.628 -5.907,1.147 -8.828,1.886c-2.922,0.739 -5.893,1.702 -8.814,2.441c-2.922,0.739 -5.904,1.258 -8.828,1.886c-2.924,0.628 -5.907,1.147 -8.828,1.886c-2.922,0.739 -5.893,1.702 -8.814,2.441c-2.922,0.739 -5.904,1.258 -8.828,1.886c-2.924,0.628 -5.904,1.258 -8.828,1.886c-2.924,0.628 -5.904,1.258 -8.828,1.886c-2.924,0.628 -5.907,1.147 -8.828,1.886c-2.922,0.739 -5.893,1.702 -8.814,2.441c-2.922,0.739 -5.907,1.147 -8.828,1.886c-2.922,0.739 -5.897,1.535 -8.814,2.441c-2.917,0.906 -5.887,1.923 -8.8,2.995c-2.913,1.072 -5.88,2.2 -8.787,3.55c-2.906,1.349 -5.859,3.032 -8.759,4.658c-2.899,1.626 -5.852,3.309 -8.745,5.213c-2.892,1.903 -5.837,3.919 -8.717,6.321c-2.88,2.402 -5.969,5.309 -8.675,7.985c-2.706,2.675 -5.03,5.119 -7.566,7.957c-2.536,2.837 -5.228,6.067 -7.538,9.065c-2.31,2.998 -4.286,6.044 -6.429,9.038c-2.144,2.994 -4.286,6.044 -6.429,9.038c-2.144,2.994 -4.286,6.044 -6.429,9.038c-2.144,2.994 -4.286,6.044 -6.429,9.038c-2.144,2.994 -4.175,6.041 -6.429,9.038c-2.255,2.997 -4.729,6.055 -6.984,9.052c-2.255,2.997 -4.286,6.044 -6.429,9.038c-2.144,2.994 -4.286,6.044 -6.429,9.038c-2.144,2.994 -4.286,6.044 -6.429,9.038c-2.144,2.994 -4.286,6.044 -6.429,9.038c-2.144,2.994 -4.397,6.046 -6.429,9.038c-2.033,2.991 -4.175,6.041 -5.875,9.024c-1.7,2.983 -3.066,6.013 -4.212,8.982c-1.146,2.969 -1.902,5.984 -2.549,8.94c-0.647,2.956 -1.07,5.963 -1.44,8.912c-0.37,2.949 -0.849,5.957 -0.886,8.898c-0.037,2.941 0.426,5.925 0.778,8.856c0.351,2.931 0.704,5.918 1.332,8.842c0.628,2.924 1.369,5.901 2.441,8.814c1.072,2.913 2.533,5.872 4.104,8.773c1.571,2.901 3.476,5.848 5.213,8.745c1.737,2.896 3.476,5.848 5.213,8.745c1.737,2.896 3.476,5.848 5.213,8.745c1.737,2.896 3.476,5.848 5.213,8.745c1.737,2.896 3.476,5.848 5.213,8.745c1.737,2.896 3.476,5.848 5.213,8.745c1.737,2.896 3.476,5.848 5.213,8.745c1.737,2.896 3.476,5.848 5.213,8.745c1.737,2.896 3.476,5.848 5.213,8.745c1.737,2.896 3.198,5.855 5.213,8.745c2.014,2.889 4.418,5.825 6.876,8.703c2.458,2.878 5.143,5.973 7.985,8.675c2.842,2.702 6.069,5.284 9.065,7.538c2.997,2.255 6.041,4.175 9.024,5.875c2.983,1.7 6.009,2.9 8.982,4.212c2.973,1.312 6.002,2.623 8.968,3.658c2.966,1.035 5.984,1.902 8.94,2.549c2.956,0.647 5.963,1.07 8.912,1.44c2.949,0.37 5.95,0.571 8.898,0.886c2.948,0.314 5.95,0.571 8.898,0.886c2.948,0.314 5.95,0.571 8.898,0.886c2.948,0.314 5.95,0.571 8.898,0.886c2.948,0.314 5.95,0.571 8.898,0.886c2.948,0.314 5.95,0.571 8.898,0.886c2.948,0.314 5.95,0.571 8.898,0.886c2.948,0.314 5.95,0.571 8.898,0.886c2.948,0.314 5.95,0.571 8.898,0.886c2.948,0.314 5.949,0.516 8.898,0.886c2.949,0.37 5.963,1.07 8.912,1.44c2.949,0.37 5.95,0.571 8.898,0.886c2.948,0.314 5.95,0.571 8.898,0.886c2.948,0.314 5.95,0.571 8.898,0.886c2.948,0.314 5.95,0.571 8.898,0.886c2.948,0.314 5.95,0.571 8.898,0.886c2.948,0.314 5.95,0.571 8.898,0.886c2.948,0.314 5.953,0.682 8.898,0.886c2.945,0.203 5.943,0.294 8.884,0.331c2.941,0.037 6.375,-0.16 8.87,-0.223c2.495,-0.063 3.608,0.076 6.098,-0.153Z" style="fill:#3e8fc6;fill-rule:nonzero;"/><clipPath id="_clip1"><path d="M321.433,413.672l-10.117,-402.107l385.077,-9.689l10.117,402.107l-385.077,9.689Z"/></clipPath><g clip-path="url(#_clip1)"><path d="M512.409,137.273l2.979,-93.325l186.064,158.982l-173.821,171.387l-11.68,-96.306l-197.778,13.999l-129.129,-5.773l3.288,130.685l-192.331,-196.341l182.214,-205.765l3.288,130.685l123.867,9.013l203.04,-17.238Z" style="fill:#d4809d;"/></g></svg>