<?xml version="1.0" encoding="UTF-8" standalone="no"?><!DOCTYPE svg PUBLIC "-//W3C//DTD SVG 1.1//EN" "http://www.w3.org/Graphics/SVG/1.1/DTD/svg11.dtd"><svg width="100%" height="100%" viewBox="0 0 759 602" version="1.1" xmlns="http://www.w3.org/2000/svg" xmlns:xlink="http://www.w3.org/1999/xlink" xml:space="preserve" xmlns:serif="http://www.serif.com/" style="fill-rule:evenodd;clip-rule:evenodd;stroke-linejoin:round;stroke-miterlimit:2;"><path d="M262.974,133.126c1.746,-0.547 5.569,-1.666 8.3,-2.576c2.731,-0.911 5.442,-2.008 8.142,-3.005c2.7,-0.996 5.442,-2.008 8.142,-3.005c2.7,-0.996 5.41,-2.094 8.142,-3.005c2.731,-0.911 5.553,-1.708 8.3,-2.576c2.747,-0.868 5.521,-1.794 8.3,-2.576c2.779,-0.782 5.632,-1.494 8.458,-2.148c2.826,-0.653 5.727,-1.237 8.616,-1.719c2.889,-0.482 5.837,-0.937 8.774,-1.291c2.937,-0.354 5.916,-0.723 8.932,-0.862c3.016,-0.139 6.154,-0.08 9.249,-0.005c3.095,0.075 6.264,0.22 9.407,0.423c3.142,0.204 6.359,0.477 9.565,0.852c3.206,0.375 6.502,0.863 9.723,1.28c3.221,0.418 6.502,0.863 9.723,1.28c3.221,0.418 6.502,0.863 9.723,1.28c3.221,0.418 6.502,0.863 9.723,1.28c3.221,0.418 6.502,0.863 9.723,1.28c3.221,0.418 6.502,0.863 9.723,1.28c3.221,0.418 6.502,0.863 9.723,1.28c3.221,0.418 6.502,0.863 9.723,1.28c3.221,0.418 6.502,0.863 9.723,1.28c3.221,0.418 6.47,0.777 9.723,1.28c3.253,0.503 6.549,0.991 9.881,1.709c3.332,0.718 6.786,1.634 10.197,2.566c3.411,0.932 6.834,1.762 10.356,2.994c3.522,1.232 7.358,2.786 10.83,4.28c3.472,1.494 6.582,2.927 9.973,4.596c3.391,1.67 7.065,3.576 10.289,5.453c3.225,1.877 6.079,3.94 9.004,5.928c2.925,1.988 5.651,4.098 8.575,6.086c2.925,1.988 6.079,3.94 9.004,5.928c2.925,1.988 5.736,4.066 8.575,6.086c2.839,2.02 5.736,4.066 8.575,6.086c2.839,2.02 5.736,4.066 8.575,6.086c2.839,2.02 5.651,4.098 8.575,6.086c2.925,1.988 6.165,3.908 9.004,5.928c2.839,2.02 5.522,4.145 8.147,6.244c2.625,2.099 5.308,4.224 7.718,6.402c2.41,2.178 4.708,4.446 6.861,6.718c2.153,2.273 4.065,4.683 6.004,7.035c1.939,2.352 3.851,4.762 5.576,7.193c1.725,2.431 3.208,4.999 4.719,7.509c1.511,2.51 2.994,5.078 4.29,7.667c1.296,2.589 2.437,5.284 3.433,7.983c0.996,2.7 1.708,5.553 2.576,8.3c0.868,2.747 1.708,5.553 2.576,8.3c0.868,2.747 1.708,5.553 2.576,8.3c0.868,2.747 1.708,5.553 2.576,8.3c0.868,2.747 1.708,5.553 2.576,8.3c0.868,2.747 1.708,5.553 2.576,8.3c0.868,2.747 1.88,5.489 2.576,8.3c0.696,2.81 1.237,5.727 1.719,8.616c0.482,2.889 1.066,5.79 1.291,8.774c0.225,2.984 0.209,6.106 0.005,9.249c-0.204,3.142 -0.777,6.47 -1.28,9.723c-0.503,3.253 -0.777,6.47 -1.709,9.881c-0.932,3.411 -2.347,7.098 -3.851,10.672c-1.505,3.574 -3.465,7.365 -5.295,10.718c-1.83,3.353 -3.829,6.379 -5.769,9.432c-1.94,3.053 -3.987,5.951 -5.928,9.004c-1.94,3.053 -3.829,6.379 -5.769,9.432c-1.94,3.053 -3.971,5.994 -5.928,9.004c-1.956,3.01 -3.94,6.079 -5.928,9.004c-1.988,2.925 -3.987,5.951 -6.086,8.575c-2.099,2.625 -4.367,4.922 -6.56,7.29c-2.194,2.368 -4.414,4.794 -6.718,6.861c-2.304,2.068 -4.778,3.808 -7.193,5.576c-2.415,1.768 -4.857,3.594 -7.351,5.147c-2.494,1.553 -5.094,2.951 -7.667,4.29c-2.573,1.339 -5.205,2.651 -7.825,3.862c-2.621,1.211 -5.315,2.351 -7.983,3.433c-2.668,1.082 -5.442,2.008 -8.142,3.005c-2.7,0.996 -5.41,2.094 -8.142,3.005c-2.731,0.911 -5.569,1.666 -8.3,2.576c-2.731,0.911 -5.442,2.008 -8.142,3.005c-2.7,0.996 -5.442,2.008 -8.142,3.005c-2.7,0.996 -5.41,2.094 -8.142,3.005c-2.731,0.911 -5.569,1.666 -8.3,2.576c-2.731,0.911 -5.442,2.008 -8.142,3.005c-2.7,0.996 -5.41,2.094 -8.142,3.005c-2.731,0.911 -5.553,1.708 -8.3,2.576c-2.747,0.868 -5.489,1.88 -8.3,2.576c-2.81,0.696 -5.727,1.237 -8.616,1.719c-2.889,0.482 -5.837,0.937 -8.774,1.291c-2.937,0.354 -5.948,0.637 -8.932,0.862c-2.984,0.225 -6.043,0.38 -9.09,0.434c-3.047,0.054 -6.154,0.08 -9.249,0.005c-3.095,-0.075 -6.264,-0.22 -9.407,-0.423c-3.142,-0.204 -6.359,-0.477 -9.565,-0.852c-3.206,-0.375 -6.502,-0.863 -9.723,-1.28c-3.221,-0.418 -6.47,-0.777 -9.723,-1.28c-3.253,-0.503 -6.66,-1.291 -9.881,-1.709c-3.221,-0.418 -6.343,-0.434 -9.565,-0.852c-3.221,-0.418 -6.628,-1.205 -9.881,-1.709c-3.253,-0.503 -6.502,-0.863 -9.723,-1.28c-3.221,-0.418 -6.502,-0.863 -9.723,-1.28c-3.221,-0.418 -6.502,-0.863 -9.723,-1.28c-3.221,-0.418 -6.502,-0.863 -9.723,-1.28c-3.221,-0.418 -6.47,-0.777 -9.723,-1.28c-3.253,-0.503 -6.517,-0.905 -9.881,-1.709c-3.364,-0.803 -6.897,-1.934 -10.356,-2.994c-3.459,-1.061 -6.976,-2.148 -10.514,-3.423c-3.538,-1.275 -7.342,-2.743 -10.83,-4.28c-3.488,-1.536 -6.88,-3.206 -10.131,-5.025c-3.252,-1.819 -6.379,-3.829 -9.432,-5.769c-3.053,-1.94 -6.079,-3.94 -9.004,-5.928c-2.925,-1.988 -5.736,-4.066 -8.575,-6.086c-2.839,-2.02 -5.651,-4.098 -8.575,-6.086c-2.925,-1.988 -6.079,-3.94 -9.004,-5.928c-2.925,-1.988 -5.736,-4.066 -8.575,-6.086c-2.839,-2.02 -5.651,-4.098 -8.575,-6.086c-2.925,-1.988 -6.079,-3.94 -9.004,-5.928c-2.925,-1.988 -5.779,-4.05 -8.575,-6.086c-2.796,-2.035 -5.565,-4.129 -8.147,-6.244c-2.582,-2.114 -5.008,-4.335 -7.29,-6.56c-2.282,-2.225 -4.365,-4.572 -6.433,-6.876c-2.068,-2.304 -4.151,-4.651 -6.004,-7.035c-1.853,-2.383 -3.594,-4.857 -5.147,-7.351c-1.553,-2.494 -2.951,-5.094 -4.29,-7.667c-1.339,-2.573 -2.737,-5.173 -3.862,-7.825c-1.125,-2.652 -2.008,-5.442 -3.005,-8.142c-0.996,-2.7 -2.137,-5.395 -3.005,-8.142c-0.868,-2.747 -1.366,-5.679 -2.148,-8.458c-0.782,-2.779 -1.708,-5.553 -2.576,-8.3c-0.868,-2.747 -1.708,-5.553 -2.576,-8.3c-0.868,-2.747 -1.708,-5.553 -2.576,-8.3c-0.868,-2.747 -1.794,-5.521 -2.576,-8.3c-0.782,-2.779 -1.494,-5.632 -2.148,-8.458c-0.653,-2.826 -1.366,-5.679 -1.719,-8.616c-0.354,-2.937 -0.423,-6.027 -0.434,-9.09c-0.011,-3.063 0.134,-6.233 0.423,-9.407c0.289,-3.174 0.563,-6.391 1.28,-9.723c0.718,-3.332 1.832,-6.908 2.994,-10.356c1.162,-3.447 2.437,-6.985 4.009,-10.243c1.573,-3.258 3.443,-6.237 5.341,-9.274c1.898,-3.037 3.987,-5.951 5.928,-9.004c1.94,-3.053 3.861,-6.293 5.769,-9.432c1.909,-3.139 3.829,-6.379 5.769,-9.432c1.94,-3.053 3.971,-5.994 5.928,-9.004c1.956,-3.01 3.908,-6.165 5.928,-9.004c2.02,-2.839 4.098,-5.651 6.244,-8.147c2.146,-2.496 4.462,-4.665 6.718,-6.861c2.257,-2.196 4.541,-4.451 6.876,-6.433c2.336,-1.982 4.762,-3.851 7.193,-5.576c2.431,-1.725 4.999,-3.208 7.509,-4.719c2.51,-1.511 5.094,-2.951 7.667,-4.29c2.573,-1.339 5.173,-2.737 7.825,-3.862c2.652,-1.125 5.442,-2.008 8.142,-3.005c2.7,-0.996 30.852,-11.386 32.566,-12.019c1.714,-0.633 0.397,-0.244 2.143,-0.791Z" style="fill:#ff6455;fill-rule:nonzero;"/><clipPath id="_clip1"><path d="M200.362,219.583l116.142,314.698l327.496,-120.866l-116.142,-314.698l-327.496,120.866Z"/></clipPath><g clip-path="url(#_clip1)"><path d="M448.341,363.136l46.864,72.256l73.06,-220.551l-199.002,-35.842l29.611,86.976c-87.07,48.66 -168.706,81.778 -258.632,92.003l-37.746,-102.277l-102.496,216.607l218.638,98.09l-37.746,-102.277c98.019,-16.786 186.112,-61.197 267.449,-104.987Z" style="fill:#3e8fc6;"/></g></svg>