<svg xmlns="http://www.w3.org/2000/svg" viewBox="0 0 1042 790">
  <path d="M 478,31 C 473.5,31.3 467.3,32.3 462.0,33.0 C 456.7,33.7 451.3,34.0 446.0,35.0 C 440.7,36.0 435.3,37.5 430.0,39.0 C 424.7,40.5 419.3,42.3 414.0,44.0 C 408.7,45.7 403.3,47.0 398.0,49.0 C 392.7,51.0 387.3,53.5 382.0,56.0 C 376.7,58.5 371.3,61.2 366.0,64.0 C 360.7,66.8 355.3,70.0 350.0,73.0 C 344.7,76.0 339.3,78.8 334.0,82.0 C 328.7,85.2 323.3,88.8 318.0,92.0 C 312.7,95.2 307.3,97.8 302.0,101.0 C 296.7,104.2 291.3,107.8 286.0,111.0 C 280.7,114.2 275.3,117.0 270.0,120.0 C 264.7,123.0 259.3,126.0 254.0,129.0 C 248.7,132.0 243.3,134.8 238.0,138.0 C 232.7,141.2 227.3,144.8 222.0,148.0 C 216.7,151.2 211.3,154.0 206.0,157.0 C 200.7,160.0 195.3,162.8 190.0,166.0 C 184.7,169.2 179.3,172.8 174.0,176.0 C 168.7,179.2 163.3,182.0 158.0,185.0 C 152.7,188.0 147.3,190.8 142.0,194.0 C 136.7,197.2 131.3,200.8 126.0,204.0 C 120.7,207.2 115.2,209.5 110.0,213.0 C 104.8,216.5 100.2,220.5 95.0,225.0 C 89.8,229.5 83.8,234.8 79.0,240.0 C 74.2,245.2 69.8,250.7 66.0,256.0 C 62.2,261.3 59.0,266.7 56.0,272.0 C 53.0,277.3 50.3,282.7 48.0,288.0 C 45.7,293.3 43.8,298.7 42.0,304.0 C 40.2,309.3 38.3,314.7 37.0,320.0 C 35.7,325.3 34.7,330.7 34.0,336.0 C 33.3,341.3 33.5,346.7 33.0,352.0 C 32.5,357.3 31.7,362.7 31.0,368.0 C 30.3,373.3 29.7,378.7 29.0,384.0 C 28.3,389.3 27.7,394.7 27.0,400.0 C 26.3,405.3 25.5,410.7 25.0,416.0 C 24.5,421.3 24.5,426.7 24.0,432.0 C 23.5,437.3 22.7,442.7 22.0,448.0 C 21.3,453.3 20.7,458.7 20.0,464.0 C 19.3,469.3 18.7,474.7 18.0,480.0 C 17.3,485.3 16.5,490.7 16.0,496.0 C 15.5,501.3 15.2,506.7 15.0,512.0 C 14.8,517.3 14.8,522.7 15.0,528.0 C 15.2,533.3 15.2,538.7 16.0,544.0 C 16.8,549.3 18.3,554.7 20.0,560.0 C 21.7,565.3 23.7,570.7 26.0,576.0 C 28.3,581.3 30.8,586.7 34.0,592.0 C 37.2,597.3 40.5,602.7 45.0,608.0 C 49.5,613.3 55.7,619.5 61.0,624.0 C 66.3,628.5 71.7,631.5 77.0,635.0 C 82.3,638.5 87.7,641.8 93.0,645.0 C 98.3,648.2 103.7,651.0 109.0,654.0 C 114.3,657.0 119.7,659.8 125.0,663.0 C 130.3,666.2 135.7,669.8 141.0,673.0 C 146.3,676.2 151.7,679.0 157.0,682.0 C 162.3,685.0 167.7,688.0 173.0,691.0 C 178.3,694.0 183.7,697.0 189.0,700.0 C 194.3,703.0 199.7,705.8 205.0,709.0 C 210.3,712.2 215.7,715.8 221.0,719.0 C 226.3,722.2 231.7,725.0 237.0,728.0 C 242.3,731.0 247.7,734.0 253.0,737.0 C 258.3,740.0 263.7,743.0 269.0,746.0 C 274.3,749.0 279.7,752.3 285.0,755.0 C 290.3,757.7 295.7,759.8 301.0,762.0 C 306.3,764.2 311.7,766.2 317.0,768.0 C 322.3,769.8 327.7,771.5 333.0,773.0 C 338.3,774.5 343.7,776.0 349.0,777.0 C 354.3,778.0 359.7,778.5 365.0,779.0 C 370.3,779.5 375.7,779.7 381.0,780.0 C 386.3,780.3 391.7,781.0 397.0,781.0 C 402.3,781.0 407.7,780.7 413.0,780.0 C 418.3,779.3 423.7,778.0 429.0,777.0 C 434.3,776.0 439.7,775.0 445.0,774.0 C 450.3,773.0 455.7,772.0 461.0,771.0 C 466.3,770.0 471.7,769.0 477.0,768.0 C 482.3,767.0 487.7,766.2 493.0,765.0 C 498.3,763.8 503.7,762.2 509.0,761.0 C 514.3,759.8 519.7,759.0 525.0,758.0 C 530.3,757.0 535.7,756.0 541.0,755.0 C 546.3,754.0 551.7,753.0 557.0,752.0 C 562.3,751.0 567.7,750.2 573.0,749.0 C 578.3,747.8 583.7,746.2 589.0,745.0 C 594.3,743.8 599.7,743.0 605.0,742.0 C 610.3,741.0 615.7,740.2 621.0,739.0 C 626.3,737.8 631.7,736.2 637.0,735.0 C 642.3,733.8 647.7,733.0 653.0,732.0 C 658.3,731.0 663.7,730.0 669.0,729.0 C 674.3,728.0 679.7,727.0 685.0,726.0 C 690.3,725.0 695.7,724.2 701.0,723.0 C 706.3,721.8 711.7,720.2 717.0,719.0 C 722.3,717.8 727.7,717.2 733.0,716.0 C 738.3,714.8 743.7,713.5 749.0,712.0 C 754.3,710.5 759.7,708.8 765.0,707.0 C 770.3,705.2 775.7,703.3 781.0,701.0 C 786.3,698.7 791.7,695.8 797.0,693.0 C 802.3,690.2 807.7,687.3 813.0,684.0 C 818.3,680.7 823.7,677.2 829.0,673.0 C 834.3,668.8 840.0,663.7 845.0,659.0 C 850.0,654.3 854.3,650.0 859.0,645.0 C 863.7,640.0 868.7,634.3 873.0,629.0 C 877.3,623.7 881.0,618.3 885.0,613.0 C 889.0,607.7 893.0,602.3 897.0,597.0 C 901.0,591.7 905.0,586.3 909.0,581.0 C 913.0,575.7 917.0,570.3 921.0,565.0 C 925.0,559.7 928.8,554.3 933.0,549.0 C 937.2,543.7 941.8,538.3 946.0,533.0 C 950.2,527.7 954.0,522.3 958.0,517.0 C 962.0,511.7 966.0,506.3 970.0,501.0 C 974.0,495.7 978.0,490.3 982.0,485.0 C 986.0,479.7 990.0,474.3 994.0,469.0 C 998.0,463.7 1002.2,458.3 1006.0,453.0 C 1009.8,447.7 1013.8,442.3 1017.0,437.0 C 1020.2,431.7 1022.8,426.3 1025.0,421.0 C 1027.2,415.7 1028.7,410.3 1030.0,405.0 C 1031.3,399.7 1032.2,394.3 1033.0,389.0 C 1033.8,383.7 1034.8,378.3 1035.0,373.0 C 1035.2,367.7 1034.5,362.3 1034.0,357.0 C 1033.5,351.7 1033.0,346.3 1032.0,341.0 C 1031.0,335.7 1029.8,330.3 1028.0,325.0 C 1026.2,319.7 1023.7,314.3 1021.0,309.0 C 1018.3,303.7 1015.0,298.3 1012.0,293.0 C 1009.0,287.7 1006.0,282.3 1003.0,277.0 C 1000.0,271.7 997.0,266.3 994.0,261.0 C 991.0,255.7 988.0,250.3 985.0,245.0 C 982.0,239.7 979.0,234.3 976.0,229.0 C 973.0,223.7 970.0,218.3 967.0,213.0 C 964.0,207.7 961.0,202.3 958.0,197.0 C 955.0,191.7 952.0,186.3 949.0,181.0 C 946.0,175.7 943.0,170.3 940.0,165.0 C 937.0,159.7 934.5,154.3 931.0,149.0 C 927.5,143.7 923.3,138.3 919.0,133.0 C 914.7,127.7 910.0,122.0 905.0,117.0 C 900.0,112.0 894.3,107.2 889.0,103.0 C 883.7,98.8 878.3,95.2 873.0,92.0 C 867.7,88.8 862.3,86.5 857.0,84.0 C 851.7,81.5 846.3,79.0 841.0,77.0 C 835.7,75.0 830.3,73.3 825.0,72.0 C 819.7,70.7 814.3,69.8 809.0,69.0 C 803.7,68.2 798.3,67.7 793.0,67.0 C 787.7,66.3 782.3,65.7 777.0,65.0 C 771.7,64.3 766.3,63.7 761.0,63.0 C 755.7,62.3 750.3,61.7 745.0,61.0 C 739.7,60.3 734.3,59.7 729.0,59.0 C 723.7,58.3 718.3,57.7 713.0,57.0 C 707.7,56.3 702.3,55.7 697.0,55.0 C 691.7,54.3 686.3,53.7 681.0,53.0 C 675.7,52.3 670.3,51.7 665.0,51.0 C 659.7,50.3 654.3,49.8 649.0,49.0 C 643.7,48.2 638.3,46.8 633.0,46.0 C 627.7,45.2 622.3,44.7 617.0,44.0 C 611.7,43.3 606.3,42.7 601.0,42.0 C 595.7,41.3 590.3,40.7 585.0,40.0 C 579.7,39.3 574.3,38.7 569.0,38.0 C 563.7,37.3 558.3,36.7 553.0,36.0 C 547.7,35.3 542.3,34.7 537.0,34.0 C 531.7,33.3 526.3,32.5 521.0,32.0 C 515.7,31.5 510.3,31.2 505.0,31.0 C 499.7,30.8 493.5,31.0 489.0,31.0 C 484.5,31.0 482.5,30.7 478.0,31.0 Z" fill="#3e8fc6"/>
</svg>