<?xml version="1.0" encoding="UTF-8" standalone="no"?>
<!DOCTYPE svg PUBLIC "-//W3C//DTD SVG 1.1//EN" "http://www.w3.org/Graphics/SVG/1.1/DTD/svg11.dtd">
<svg width="100%" height="100%" viewBox="0 0 370 186" version="1.1" xmlns="http://www.w3.org/2000/svg" xmlns:xlink="http://www.w3.org/1999/xlink" xml:space="preserve" xmlns:serif="http://www.serif.com/" style="fill-rule:evenodd;clip-rule:evenodd;stroke-linejoin:round;stroke-miterlimit:2;">
    <g transform="matrix(1,0,0,1,-9607.877582,-13694.1376)">
        <g transform="matrix(0.598387,0,0,0.739744,-513.619411,11350.358976)">
            <g transform="matrix(2.772736,0.044029,-0.045266,1.865275,-4912.119551,-1098.388065)">
                <g transform="matrix(0.161747,-0.009221,0.006274,0.203863,6886.141429,1613.656666)">
                    <g transform="matrix(858.617898,0,0,858.617898,7076.563909,3323)">
                    </g>
                    <text x="6582px" y="3323px" style="font-family:'RESPECTOutline', 'RESPECT';font-size:858.617898px;">B</text>
                </g>
                <g transform="matrix(0.151087,-0.008613,0.006329,0.205626,7028.625188,1598.776426)">
                    <g transform="matrix(858.617898,0,0,858.617898,7198.487651,3323)">
                    </g>
                    <text x="6582px" y="3323px" style="font-family:'RESPECTOutline', 'RESPECT';font-size:858.617898px;">W</text>
                </g>
                <g transform="matrix(-0.002253,-0.370664,0.652673,-0.005735,7099.536706,5096.528477)">
                    <rect x="7971.40241" y="1379.465417" width="61.096572" height="79.795988" style="fill:rgb(255,231,56);"/>
                </g>
                <g transform="matrix(0.308266,0.000095,-0.000248,1.167822,5524.8271,515.955162)">
                    <rect x="7971.40241" y="1379.465417" width="61.096572" height="79.795988" style="fill:rgb(255,231,56);"/>
                </g>
                <g transform="matrix(0.308132,-0.010937,0.028655,1.167314,5521.280947,602.817104)">
                    <rect x="7971.40241" y="1379.465417" width="61.096572" height="79.795988" style="fill:rgb(255,231,56);"/>
                </g>
                <g transform="matrix(-0.009971,-0.282192,0.542337,-0.027707,7322.07004,4508.559064)">
                    <rect x="7971.40241" y="1379.465417" width="61.096572" height="79.795988" style="fill:rgb(255,231,56);"/>
                </g>
                <g transform="matrix(-0.011249,-0.318379,0.542337,-0.027707,7328.977341,4752.630681)">
                    <rect x="7971.40241" y="1379.465417" width="61.096572" height="79.795988" style="fill:rgb(255,231,56);"/>
                </g>
                <g transform="matrix(0.264637,-0.017004,0.063209,1.42238,5853.13005,280.792394)">
                    <rect x="7971.40241" y="1379.465417" width="61.096572" height="79.795988" style="fill:rgb(255,231,56);"/>
                </g>
                <g transform="matrix(0.264637,-0.017004,0.063209,1.42238,5911.540445,276.571998)">
                    <rect x="7971.40241" y="1379.465417" width="61.096572" height="79.795988" style="fill:rgb(255,231,56);"/>
                </g>
                <g transform="matrix(0.20322,-0.204537,0.408269,0.586507,5895.344262,2991.233697)">
                    <rect x="7971.40241" y="1379.465417" width="61.096572" height="79.795988" style="fill:rgb(255,231,56);"/>
                </g>
                <g transform="matrix(0.20322,-0.204537,0.408269,0.586507,5895.344262,2991.233697)">
                    <rect x="7971.40241" y="1379.465417" width="61.096572" height="79.795988" style="fill:rgb(255,231,56);"/>
                </g>
                <g transform="matrix(0.204013,0.203392,-0.405984,0.588795,7022.222063,-276.246507)">
                    <rect x="7971.40241" y="1379.465417" width="61.096572" height="79.795988" style="fill:rgb(255,231,56);"/>
                </g>
                <g transform="matrix(0.308266,0,0,1.287809,5456.08649,344.046644)">
                    <rect x="7971.40241" y="1379.465417" width="61.096572" height="79.795988" style="fill:rgb(255,231,56);"/>
                </g>
                <g transform="matrix(0.308266,0,0,1.287809,5491.186487,344.276184)">
                    <rect x="7971.40241" y="1379.465417" width="61.096572" height="79.795988" style="fill:rgb(255,231,56);"/>
                </g>
                <g transform="matrix(-0.002253,-0.370664,0.551332,-0.004844,7174.696974,5104.957985)">
                    <rect x="7971.40241" y="1379.465417" width="61.096572" height="79.795988" style="fill:rgb(255,231,56);"/>
                </g>
                <g transform="matrix(-0.002253,-0.370664,0.551332,-0.004844,7174.696974,5151.702334)">
                    <rect x="7971.40241" y="1379.465417" width="61.096572" height="79.795988" style="fill:rgb(255,231,56);"/>
                </g>
                <g transform="matrix(0.14755,-0.008411,0.00618,0.200812,6912.360295,1623.34302)">
                    <g transform="matrix(858.617898,0,0,858.617898,7099.746593,3323)">
                    </g>
                    <text x="6582px" y="3323px" style="font-family:'RESPECTOutline', 'RESPECT';font-size:858.617898px;">A</text>
                </g>
                <g transform="matrix(0.161747,-0.009221,0.006274,0.203863,6886.141429,1613.656666)">
                    <g transform="matrix(858.617898,0,0,858.617898,7076.563909,3323)">
                    </g>
                    <text x="6582px" y="3323px" style="font-family:'RESPECTOutline', 'RESPECT';font-size:858.617898px;">B</text>
                </g>
                <g transform="matrix(0.151087,-0.008613,0.006329,0.205626,7028.625188,1598.776426)">
                    <g transform="matrix(858.617898,0,0,858.617898,7198.487651,3323)">
                    </g>
                    <text x="6582px" y="3323px" style="font-family:'RESPECTOutline', 'RESPECT';font-size:858.617898px;">W</text>
                </g>
                <g transform="matrix(0.14755,-0.008411,0.00618,0.200812,6912.360295,1623.34302)">
                    <g transform="matrix(858.617898,0,0,858.617898,7099.746593,3323)">
                    </g>
                    <text x="6582px" y="3323px" style="font-family:'RESPECTOutline', 'RESPECT';font-size:858.617898px;">A</text>
                </g>
            </g>
        </g>
    </g>
</svg>
